<svg xmlns="http://www.w3.org/2000/svg" width="83" height="83" viewBox="0 0 83 83">
    <defs>
        <style>
            .cls-3{fill:none;stroke:#ff7f2f;stroke-width:7px}
        </style>
    </defs>
    <g id="Group_71" transform="translate(-658.459 -153.459)">
        <circle id="Ellipse_8" cx="41.5" cy="41.5" r="41.5" fill="#ffe53b" transform="translate(658.459 153.459)"/>
        <g id="Group_69" transform="translate(673.027 166.825)">
            <path id="Line_18" fill="none" stroke="#ff7f2f" stroke-width="4px" d="M0 0L42.326 0" transform="translate(5.77 46.082)"/>
            <path id="Line_19" d="M0 0L0 10.581" class="cls-3" transform="translate(9.297 31.974)"/>
            <path id="Line_20" d="M0 0L0 14.108" class="cls-3" transform="translate(21.642 28.447)"/>
            <path id="Line_21" d="M0 0L0 17.636" class="cls-3" transform="translate(33.105 24.92)"/>
            <path id="Line_22" d="M0 0L0 21.163" class="cls-3" transform="translate(44.568 21.393)"/>
            <path id="Icon_awesome-long-arrow-alt-right" fill="#ff7f2f" d="M41.536 5.231s-4.745 2.549-18.7 2.692a90.811 90.811 0 0 1-22.2-2.9 127.327 127.327 0 0 0 21.065 5.886c7.28 1.1 16.017.123 20.145.136l-3.81 3.392c0 1.573 2.67 2.361 4.232 1.249l8.889-6.333a1.437 1.437 0 0 0 0-2.5L42.262.521C40.7-.592 38.03.2 38.03 1.77z" transform="rotate(-25 49.446 10.962)"/>
        </g>
    </g>
</svg>
